# xmcd
#
# Track frame offsets:
#	150
#	20275
#	40985
#	64695
#	80917
#	105112
#	128775
#	155425
#	175037
#	191857
#	213075
#	226375
#	257637
#	275667
#	294450
#
# Disc length: 4160 seconds
#
# Revision: 1
# Processed by: cddbd v1.5.1PL0 Copyright (c) Steve Scherf et al.
# Submitted via: CDex 1.50Beta5
#
DISCID=cd103e0f
DTITLE=Various Artist - NEW MUSIC BEST COLLECTION 13
DYEAR=1900
DGENRE=Folk
TTITLE0=竹内まりや/時空の旅人
TTITLE1=竹内まりや/恋の嵐
TTITLE2=安部恭弘/Calling You
TTITLE3=飯島真理/Love is a miracle
TTITLE4=世良公則/I'm Crying
TTITLE5=小川博史/ハイウェイ・ドライバー
TTITLE6=HOUND DOG/Best Of Dream
TTITLE7=HOUND DOG/横浜レイニーブルー
TTITLE8=橋本一子/ロマンティックな雨
TTITLE9=ZABADAK/遠い音楽
TTITLE10=THE BLUE HEARTS/情熱の薔薇
TTITLE11=THE BLUE HEARTS/TOO MUCH PAIN
TTITLE12=バナナギャングス/哀しみの街かど
TTITLE13=竹内まりや/もう一度
TTITLE14=竹内まりや/本気でオンリーユー(Let's Get Married)
EXTD=
EXTT0=
EXTT1=
EXTT2=
EXTT3=
EXTT4=
EXTT5=
EXTT6=
EXTT7=
EXTT8=
EXTT9=
EXTT10=
EXTT11=
EXTT12=
EXTT13=
EXTT14=
PLAYORDER=
